<svg xmlns="http://www.w3.org/2000/svg" xmlns:xlink="http://www.w3.org/1999/xlink" width="8000" zoomAndPan="magnify" viewBox="0 0 6000 1049.999947" height="1400" preserveAspectRatio="xMidYMid meet" version="1.0"><defs><g/></defs><g fill="#ff0000" fill-opacity="1"><g transform="translate(283.891265, 808.874701)"><g><path d="M 608 -80 L 608 -560 L 480 -560 L 480 -128 L 192 -128 L 192 -560 L 4 -560 L 4 -432 L 64 -432 L 64 -80 L 144 0 L 528 0 Z M 608 -80 "/></g></g></g><g fill="#ff0000" fill-opacity="1"><g transform="translate(1017.492365, 808.874701)"><g><path d="M 568 0 L 568 -560 L 440 -560 L 440 -216 L 192 -560 L 4 -560 L 4 -432 L 64 -432 L 64 0 L 192 0 L 192 -343.199219 L 440 0 Z M 568 0 "/></g></g></g><g fill="#ff0000" fill-opacity="1"><g transform="translate(1711.093531, 808.874701)"><g/></g></g><g fill="#ff0000" fill-opacity="1"><g transform="translate(2116.694266, 808.874701)"><g><path d="M 520 0 L 600 -80 L 600 -200 L 520 -280 L 600 -360 L 600 -480 L 520 -560 L 4 -560 L 4 -432 L 64 -432 L 64 0 Z M 472 -128 L 192 -128 L 192 -216 L 472 -216 Z M 472 -344 L 192 -344 L 192 -432 L 472 -432 Z M 472 -344 "/></g></g></g><g fill="#ff0000" fill-opacity="1"><g transform="translate(2842.295581, 808.874701)"><g><path d="M 552 0 L 552 -128 L 192 -128 L 192 -560 L 4 -560 L 4 -432 L 64 -432 L 64 0 Z M 552 0 "/></g></g></g><g fill="#ff0000" fill-opacity="1"><g transform="translate(3487.896841, 808.874701)"><g><path d="M 544 0 L 624 -80 L 624 -480 L 544 -560 L 120 -560 L 40 -480 L 40 -80 L 120 0 Z M 496 -128 L 168 -128 L 168 -432 L 496 -432 Z M 496 -128 "/></g></g></g><g fill="#ff0000" fill-opacity="1"><g transform="translate(4237.497967, 808.874701)"><g><path d="M 524 0 L 604 -80 L 604 -344 L 340 -344 L 340 -216 L 476 -216 L 476 -128 L 168 -128 L 168 -432 L 544 -432 L 544 -560 L 120 -560 L 40 -480 L 40 -80 L 120 0 Z M 524 0 "/></g></g></g><g fill="#ff0000" fill-opacity="1"><g transform="translate(4967.09922, 808.874701)"><g><path d="M 492 0 L 572 -80 L 572 -264 L 492 -344 L 168 -344 L 168 -432 L 572 -432 L 572 -560 L 120 -560 L 40 -480 L 40 -296 L 120 -216 L 444 -216 L 444 -128 L 40 -128 L 40 0 Z M 492 0 "/></g></g></g><g fill="#00ffff" fill-opacity="1"><g transform="translate(363.295194, 799.12511)"><g><path d="M 608 -80 L 608 -560 L 480 -560 L 480 -128 L 192 -128 L 192 -560 L 4 -560 L 4 -432 L 64 -432 L 64 -80 L 144 0 L 528 0 Z M 608 -80 "/></g></g></g><g fill="#00ffff" fill-opacity="1"><g transform="translate(1096.896293, 799.12511)"><g><path d="M 568 0 L 568 -560 L 440 -560 L 440 -216 L 192 -560 L 4 -560 L 4 -432 L 64 -432 L 64 0 L 192 0 L 192 -343.199219 L 440 0 Z M 568 0 "/></g></g></g><g fill="#00ffff" fill-opacity="1"><g transform="translate(1790.497459, 799.12511)"><g/></g></g><g fill="#00ffff" fill-opacity="1"><g transform="translate(2196.098194, 799.12511)"><g><path d="M 520 0 L 600 -80 L 600 -200 L 520 -280 L 600 -360 L 600 -480 L 520 -560 L 4 -560 L 4 -432 L 64 -432 L 64 0 Z M 472 -128 L 192 -128 L 192 -216 L 472 -216 Z M 472 -344 L 192 -344 L 192 -432 L 472 -432 Z M 472 -344 "/></g></g></g><g fill="#00ffff" fill-opacity="1"><g transform="translate(2921.69951, 799.12511)"><g><path d="M 552 0 L 552 -128 L 192 -128 L 192 -560 L 4 -560 L 4 -432 L 64 -432 L 64 0 Z M 552 0 "/></g></g></g><g fill="#00ffff" fill-opacity="1"><g transform="translate(3567.30077, 799.12511)"><g><path d="M 544 0 L 624 -80 L 624 -480 L 544 -560 L 120 -560 L 40 -480 L 40 -80 L 120 0 Z M 496 -128 L 168 -128 L 168 -432 L 496 -432 Z M 496 -128 "/></g></g></g><g fill="#00ffff" fill-opacity="1"><g transform="translate(4316.901896, 799.12511)"><g><path d="M 524 0 L 604 -80 L 604 -344 L 340 -344 L 340 -216 L 476 -216 L 476 -128 L 168 -128 L 168 -432 L 544 -432 L 544 -560 L 120 -560 L 40 -480 L 40 -80 L 120 0 Z M 524 0 "/></g></g></g><g fill="#00ffff" fill-opacity="1"><g transform="translate(5046.503148, 799.12511)"><g><path d="M 492 0 L 572 -80 L 572 -264 L 492 -344 L 168 -344 L 168 -432 L 572 -432 L 572 -560 L 120 -560 L 40 -480 L 40 -296 L 120 -216 L 444 -216 L 444 -128 L 40 -128 L 40 0 Z M 492 0 "/></g></g></g><g fill="#000000" fill-opacity="1"><g transform="translate(323.593228, 803.999906)"><g><path d="M 608 -80 L 608 -560 L 480 -560 L 480 -128 L 192 -128 L 192 -560 L 4 -560 L 4 -432 L 64 -432 L 64 -80 L 144 0 L 528 0 Z M 608 -80 "/></g></g></g><g fill="#000000" fill-opacity="1"><g transform="translate(1057.194328, 803.999906)"><g><path d="M 568 0 L 568 -560 L 440 -560 L 440 -216 L 192 -560 L 4 -560 L 4 -432 L 64 -432 L 64 0 L 192 0 L 192 -343.199219 L 440 0 Z M 568 0 "/></g></g></g><g fill="#000000" fill-opacity="1"><g transform="translate(2156.396229, 803.999906)"><g><path d="M 520 0 L 600 -80 L 600 -200 L 520 -280 L 600 -360 L 600 -480 L 520 -560 L 4 -560 L 4 -432 L 64 -432 L 64 0 Z M 472 -128 L 192 -128 L 192 -216 L 472 -216 Z M 472 -344 L 192 -344 L 192 -432 L 472 -432 Z M 472 -344 "/></g></g></g><g fill="#000000" fill-opacity="1"><g transform="translate(2881.997545, 803.999906)"><g><path d="M 552 0 L 552 -128 L 192 -128 L 192 -560 L 4 -560 L 4 -432 L 64 -432 L 64 0 Z M 552 0 "/></g></g></g><g fill="#000000" fill-opacity="1"><g transform="translate(3527.598805, 803.999906)"><g><path d="M 544 0 L 624 -80 L 624 -480 L 544 -560 L 120 -560 L 40 -480 L 40 -80 L 120 0 Z M 496 -128 L 168 -128 L 168 -432 L 496 -432 Z M 496 -128 "/></g></g></g><g fill="#000000" fill-opacity="1"><g transform="translate(4277.199931, 803.999906)"><g><path d="M 524 0 L 604 -80 L 604 -344 L 340 -344 L 340 -216 L 476 -216 L 476 -128 L 168 -128 L 168 -432 L 544 -432 L 544 -560 L 120 -560 L 40 -480 L 40 -80 L 120 0 Z M 524 0 "/></g></g></g><g fill="#000000" fill-opacity="1"><g transform="translate(5006.801183, 803.999906)"><g><path d="M 492 0 L 572 -80 L 572 -264 L 492 -344 L 168 -344 L 168 -432 L 572 -432 L 572 -560 L 120 -560 L 40 -480 L 40 -296 L 120 -216 L 444 -216 L 444 -128 L 40 -128 L 40 0 Z M 492 0 "/></g></g></g></svg>